<?xml version="1.0" standalone="no"?>
<!DOCTYPE svg PUBLIC "-//W3C//DTD SVG 20010904//EN"
 "http://www.w3.org/TR/2001/REC-SVG-20010904/DTD/svg10.dtd">
<svg version="1.0" xmlns="http://www.w3.org/2000/svg"
 width="136.000000pt" height="136.000000pt" viewBox="0 0 136.000000 136.000000"
 preserveAspectRatio="xMidYMid meet">
<metadata>
Created by potrace 1.14, written by Peter Selinger 2001-2017
</metadata>
<g transform="translate(0.000000,136.000000) scale(0.100000,-0.100000)"
fill="#000000" stroke="none">
<path d="M615 1168 c-94 -35 -180 -118 -229 -220 -34 -72 -36 -80 -36 -184 0
-73 -3 -104 -10 -94 -6 10 -7 -33 -3 -120 3 -74 8 -137 10 -140 2 -2 12 1 22
7 16 10 20 7 34 -27 14 -36 14 -40 -3 -55 -22 -20 -79 -34 -137 -35 -55 0
-173 -63 -208 -109 -14 -19 -25 -39 -25 -43 0 -4 295 -8 655 -8 414 0 655 4
655 10 0 5 -14 25 -31 44 -46 53 -128 93 -216 106 -83 13 -123 27 -123 44 1 6
7 22 15 36 8 14 14 35 15 47 0 19 4 22 29 17 25 -5 30 -2 40 27 6 17 11 70 11
115 0 82 -1 84 -24 84 -23 0 -24 2 -28 118 -3 104 -7 126 -31 174 -61 124
-174 207 -291 214 -33 2 -74 -1 -91 -8z"/>
</g>
</svg>
